<?xml version="1.0" encoding="utf-8"?>
<svg xmlns="http://www.w3.org/2000/svg" width="600" height="600" xmlns:bx="https://boxy-svg.com" viewBox="0 0 600 600"><defs><bx:export><bx:file format="svg"/><bx:file format="png"/></bx:export></defs><path style="fill: rgb(9, 6, 11); stroke: none;" d="M 178.996 322.257 C 172.527 324.718 168.751 318.561 163.996 315.44 C 157.57 311.222 150.158 307.341 145.51 300.985 C 139.644 292.963 137.751 281.137 133.989 272 C 128.391 258.402 120.059 245.688 117.464 231 C 115.681 220.91 118.73 211.86 119.833 202 C 122.351 179.496 121.82 153.727 132.015 133 C 142.342 112.006 163.168 98.504 181.715 85.655 C 195.144 76.351 208.616 67.489 223 59.691 C 229.791 56.01 236.634 51.566 244 49.105 C 254.154 45.712 267.355 47.64 278 46.911 C 304.689 45.083 329.914 48.814 356 54.576 C 372.045 58.12 388.753 62.244 402 72.428 C 412.298 80.345 418.592 91.468 427.171 101 C 435.859 110.654 446.288 119.355 453.791 130 C 463.853 144.276 468.857 162.133 472.576 179 C 474.818 189.169 471.849 198.845 473.3 209 C 474.55 217.749 481.635 225.308 481.541 234 C 481.397 247.26 472.454 258.722 471.17 272 C 470.414 279.814 472.728 287.246 472.996 295 C 473.47 308.713 471.709 315.5 471.627 317.92 C 471.416 324.097 469.217 330.713 466.123 335.999 C 463.648 340.229 460.011 344.571 455 345.697 C 447.784 347.318 440.683 343.171 435.105 350.274 C 429.297 357.67 433.192 365.729 433.795 374 C 434.558 384.47 433.537 393.57 432.285 404 C 431.678 409.067 432.112 414.297 429.697 418.999 C 425.567 427.038 414.87 432.665 406 432.942 C 399.968 433.131 392.929 432.301 387 431.228 C 383.326 430.564 379.661 431.296 376 430.671 C 371.756 429.945 367.932 427.635 364 426 C 368.035 438.901 382.309 452.345 379.617 467 C 378.706 471.955 375.636 475.816 373.09 480 C 369.652 485.648 366.762 491.225 361.961 495.91 C 356.987 500.764 352.444 505.577 346.624 511.106 C 342.318 515.196 340.925 522.894 340.184 529 C 339.783 532.309 340.439 535.825 339.143 538.985 C 337.612 542.717 334.025 545.783 330.95 548.251 C 321.73 555.648 294 558 294 558 C 277.062 557.849 267.923 543.376 257.561 532.093 C 252.482 526.563 245.33 524.158 240.764 517.999 C 235.962 511.523 233.903 504.369 231.084 497 C 229.557 493.009 226.729 489.802 225.143 485.91 C 223.974 483.042 223.804 479.892 222.652 477 C 216.416 461.348 208.339 446.428 201.576 431 C 198.462 423.894 195.198 416.151 190.239 410.104 C 185.982 404.912 179.837 402.554 179.225 395 C 178.697 388.494 182.47 381.73 185.081 376 C 189.142 367.086 192.575 358.501 195.077 349 C 197.49 339.839 198.619 327.312 196.471 318 C 195.414 313.418 192.616 309.713 192 305 C 186.528 309.923 186.57 319.376 178.996 322.257 Z M 274.56 353.785 C 268.504 358.603 266.778 361.38 263.466 370.011 C 260.169 378.603 254.442 382.866 251.312 390.965 C 250.216 393.801 250.298 400.934 250.39 404 C 250.581 410.304 253.455 418.934 259.989 421.238 C 267.384 423.847 269.683 410.419 277.985 414.358 C 283.911 417.169 286.056 424.187 290.262 428.715 C 294.427 433.197 297.87 439.203 302.274 443.239 C 305.098 445.828 308.886 446.993 311.741 449.495 C 315.72 452.982 318.17 456.413 323 459 C 327.177 448.766 330.982 439.223 331 428 C 331.005 424.775 331.975 419.542 329.397 417.071 C 321.758 409.752 307.059 410.17 302.269 398.999 C 300.99 396.015 302.386 393.045 302.53 390 C 303.074 378.506 310.065 360.188 294.999 354.403 C 292.75 353.539 290.396 353.157 288 353.04 C 283.351 352.814 279.214 351.992 274.56 353.785 Z"/><path style="fill: rgb(110, 70, 200); stroke: none;" d="M 242 49 L 243 50 L 242 49 M 330.667 49.333 C 330.222 49.778 331.278 49.722 331.333 49.667 C 331.778 49.222 330.722 49.278 330.667 49.333 M 240 50 L 241 51 L 240 50 M 195 297 C 187.976 294.17 183.166 302.599 180.489 308 C 179.455 310.087 178.124 314.858 174.985 314.369 C 171.468 313.821 167.126 307.81 164 305.811 C 149.323 296.426 144.698 284.706 139.142 269 C 136.535 261.629 133.21 253.937 133.054 246 C 132.92 239.206 135.024 232.637 136 226 C 132.074 231.195 130.856 238.644 130 245 C 124.059 233.667 126.073 220.23 126.91 208 C 127.388 201.025 126.475 193.961 127.171 187 C 128.497 173.733 131.572 164.244 135.968 153.605 C 137.142 150.763 141 146 141 146 C 141 146 149.836 134.892 155 130.09 C 171.319 114.914 195.302 103.022 217 98 C 216.238 103.181 213.288 108.731 214.652 114 C 216.085 119.533 221.819 124.973 220.305 131 C 218.892 136.624 213.728 141.987 210.85 147 C 203.953 159.015 198.117 171.899 198 186 C 200.445 181.435 200.93 175.971 202.289 171 C 203.593 166.228 205.856 161.827 207 157 C 207.441 162.094 205.242 167.069 204.004 172 C 202.549 177.795 201.738 184.05 201.17 190 C 199.384 208.688 204.381 226.62 213 243 C 221.11 240.497 218.98 228.014 227.043 225.777 C 232.897 224.152 240.111 229.231 246 229.607 C 249.408 229.824 252.626 228.365 256 228.093 C 267.437 227.174 276.715 226.98 287 221 C 285.636 227.521 283.046 232.9 278.699 238 C 275.083 242.243 269.986 245.82 267.653 251 C 261.985 263.581 271.5 276.829 259.956 287.895 C 258.198 289.58 256.247 291.041 254 292.005 C 251.272 293.177 247.962 293.798 245 293.871 C 238.376 294.035 232.288 290.765 226 289.239 C 219.436 287.647 211.914 287.586 206 283.995 C 200.705 280.779 197.799 275.164 192.961 271.499 C 183.722 264.502 173.519 269.791 165 275 C 167.7 276.056 170.139 275.386 173 275.634 C 177.223 276.001 181.488 277.799 185 280.108 C 193.776 285.877 198.121 296.028 207 301.74 C 211.071 304.359 215.858 303.817 219.91 306.023 C 223.008 307.709 225.047 310.927 228.015 312.867 C 232.826 316.013 238.283 317.74 243 321.158 C 257.134 331.401 270.143 351.618 290 347.521 C 294.825 346.525 298.768 343.348 303 341 C 297.338 339.265 292.471 344.922 287 343.367 C 282.966 342.221 279.826 338.29 276.83 335.576 C 267.435 327.064 260.532 319.419 257 307 C 262.916 309.295 268.563 311.676 275 311.961 C 279.737 312.17 286.573 310.491 290.961 312.349 C 295.677 314.346 299.304 320.462 303 323.91 C 311.55 331.888 321.708 341.011 324.471 353 C 325.56 357.726 324.254 362.276 324.039 367 C 323.62 376.247 323.271 384.76 324 394 C 325.789 392.895 327.292 390.903 329.21 390.067 C 334.462 387.777 335.858 394.521 337 398 C 338.9 396.043 341.643 391.13 344.826 391.631 C 348.061 392.14 349.323 397.688 351 400 C 352.183 398.004 353.255 395.868 354.639 394.001 C 355.358 393.031 356.149 391.946 357.105 391.192 C 366.396 383.866 366.956 402.667 367 408 C 370.14 404.128 371.457 398.303 376.039 395.662 C 383.476 391.377 384.909 404.606 385 409 L 387 409 C 388.186 402.427 394.665 391.584 400.544 400.999 C 401.316 402.236 401.592 403.629 402 405 C 405.716 399.8 408.886 395.994 414 402 C 417.615 399.166 419.385 399.166 423 402 C 425.337 398.688 426.907 396.661 431 396 C 433.414 376.8 419.891 356.918 435.109 340.004 C 437.706 337.117 440.691 334.507 444 332.468 C 448.048 329.974 452.323 328.633 457 328 C 453.497 333.512 449.862 337.085 444 340 C 453.533 345.348 459.09 340.913 463.738 332 C 469.401 321.139 470.885 307.167 469.907 295 C 469.122 285.243 466.838 277.944 468.804 268 C 470.684 258.489 476.485 249.826 476.96 240 C 477.553 227.714 469.258 219.574 467.326 208 C 465.826 199.018 468.91 190.024 467.816 181 C 466.096 166.822 459.171 149.337 452.127 137 C 446.348 126.877 437.858 118.746 430.3 110.004 C 420.526 98.699 411.614 85.483 399 77.105 C 382.384 66.068 362.209 61.702 343 57.715 C 321.213 53.192 301.345 50 279 50 C 268.891 50 257.807 50.223 248 52.927 C 239.888 55.163 232.268 60.461 225 64.576 C 212.784 71.493 200.562 78.29 189 86.283 C 161.854 105.051 137.424 124.917 128.489 158 C 124.719 171.959 125.18 185.812 123.83 200 C 122.83 210.506 120.611 221.443 122.464 232 C 125.468 249.12 133.902 265.003 140.352 281 C 142.058 285.231 143.239 290.158 145.727 294 C 150.413 301.234 158.05 306.533 165 311.348 C 168.303 313.636 172.59 318.954 176.985 318.418 C 182.66 317.726 184.04 310.168 186.135 306.001 C 188.218 301.858 191.177 299.45 195 297 M 336 50 L 337 51 L 336 50 M 238 51 L 239 52 L 238 51 M 341 51 L 342 52 L 341 51 Z"/><path style="fill: rgb(9, 6, 11); stroke: none;" d="M232 66C235.988 67.3796 239.543 65.008 243 63C239.174 61.9839 235.661 64.8439 232 66z"/><path style="fill: rgb(9, 6, 11); stroke: none;" d="M232 69C216.359 74.3381 203.136 81.3171 189 90C190.659 90.4065 191.242 90.3086 193 90C184.981 95.7091 175.172 98.9542 169 107C181.018 100.604 192.205 94.0547 205 89.1921C210.404 87.1385 218.869 86.1365 222 81C212.492 81.8291 204.029 86.4188 195 89C203.876 82.9339 214.924 83.0131 224 77.9152C227.221 76.1063 232.088 72.8991 232 69z"/><path style="fill: rgb(9, 6, 11); stroke: none;" d="M136 149C140.703 143.606 144.23 137.365 149.285 132.17C161.889 119.217 177.677 109.783 194 102.309C202.765 98.2955 218.965 97.3035 220 86C212.051 87.1739 204.354 90.7175 197 93.8503C173.777 103.743 140.744 121.447 136 149z"/><path style="fill: rgb(9, 6, 11); stroke: none;" d="M 379 281 C 366.968 287.583 355.412 298.734 341 300 C 349.592 295.472 358.068 292.246 364 284 C 351.075 292.076 341.171 301.002 325 298 C 331.076 295.419 337.781 294.723 344 292.456 C 357.041 287.702 366.556 278.05 371 265 C 371.401 271.247 367.826 276.627 365 282 C 376.586 272.4 374.019 246.457 374 249 C 371.383 240.405 369.655 233.868 360 231 C 367.14 227.584 372.632 230.944 377 237 C 378.307 227.303 362.173 227.117 356 228.598 C 350.935 229.813 346.228 232.258 341 232.826 C 334.685 233.513 328.26 232.333 322 233.669 C 315.62 235.03 310.014 238.414 304 240.796 C 297.31 243.447 288.761 244.937 285.179 252.004 C 282.806 256.685 284.128 263.044 284.715 268 C 286.209 280.622 289.787 293.65 303 299.02 C 311.499 302.474 319.195 301.494 328 301.259 C 333.357 301.116 338.578 302.407 344 301.826 C 357.271 300.405 371.357 291.821 379 281 Z"/><path style="fill: rgb(9, 6, 11); stroke: none;" d="M 416 255 C 414.457 252.959 426.062 270.694 429.356 281 C 430.41 284.297 428.29 287.415 428.64 290.715 C 429.331 297.235 430.658 303.291 429.7 310 C 428.515 318.293 424.267 325.131 422 333 C 430.729 324.363 431.999 308.621 432 297 C 443.953 300.976 459.724 300.517 463.312 285 C 464.095 281.612 463.425 278.379 463 275 C 461.143 279.425 461.941 284.401 460 289 C 456.365 273.732 459.316 253.77 464 239 C 465.639 242.669 464.865 245.161 464 249 C 466.422 245.749 467.185 241.936 468 238 C 469.276 245.668 465.391 253.356 465 261 C 467.778 257.102 468.765 251.621 470 247 C 470.986 248.479 471 248.203 471 250 C 478.49 234.415 458.469 231.089 447 231.005 C 431.473 230.89 421.327 241.289 416 255 Z"/><path style="fill: rgb(9, 6, 11); stroke: none;" d="M380 246C381.272 256.114 379.035 265.139 377 275C384.105 267.909 386.509 254.145 380 246z"/><path style="fill: rgb(9, 6, 11); stroke: none;" d="M407 340C398.079 346.094 389.25 353.955 379 345C389.128 344.972 394.544 340.503 403 335.674C405.231 334.4 408.349 333.315 409.867 336.248C411.645 339.682 407.635 345.438 407 349C414.351 346.887 415.627 339.28 418.336 333C423.424 321.209 427.177 311.14 427.292 298C427.317 295.09 425.942 292.796 425.503 290C425.047 287.094 425.875 283.93 426 281C417.41 281.202 411.038 286.275 405 292.039C396.254 300.389 387.301 309.959 380.52 320C377.06 325.124 372.773 331.537 373.33 338C374.082 346.721 384.087 354.866 393 352.192C398.888 350.426 403.592 344.837 407 340z"/><path style="fill: rgb(9, 6, 11); stroke: none;" d="M200 290C202.896 295.814 206.556 300.317 213 302C210.146 296.978 204.7 293.272 200 290z"/><path style="fill: rgb(9, 6, 11); stroke: none;" d="M214 299C215.33 300.753 216.247 301.67 218 303C216.782 300.882 216.133 300.155 214 299M218 299C222.56 308.577 233.379 313.912 243 317C241.1 314.561 238.664 312.923 236.633 310.625C234.475 308.182 233.532 304.835 231.247 302.513C228.016 299.231 222.302 299.089 218 299z"/><path style="fill: rgb(110, 70, 200); stroke: none;" d="M 198 300 C 195.269 305.81 198.421 309.208 199.532 315 C 200.575 320.441 200.201 326.551 199.421 332 C 197.774 343.495 196.585 355.872 193.252 367 C 190.39 376.551 184.367 387.765 186.228 398 C 187.058 402.563 190.762 405.441 193.391 409 C 196.348 413.003 198.546 417.559 200.752 422 C 211.406 443.445 221.659 465.26 231.692 487 C 236.197 496.762 240.417 508.306 246.789 516.985 C 251.943 524.006 259.823 529.826 266 536 C 273.727 543.724 282.5 551.979 294 552.907 C 305.917 553.868 317.544 549.613 326.996 542.522 C 330.106 540.189 333.91 537.492 335.525 533.826 C 337.458 529.439 336.486 524.551 337.529 520 C 339.712 510.477 346.305 500.511 355 496 C 353.652 497.768 352.878 498.983 352 501 C 359.257 496.307 367.317 489.403 370 481 C 367.7 482.955 365.9 485.119 363 486 C 361.011 488.709 358.51 491.708 354.985 492.362 C 350.011 493.284 340.489 493.919 334.888 492.515 C 327.338 490.692 325.009 495.447 327 484 C 324.305 484.845 317.038 485.996 314.936 485.435 C 315.549 487.096 313.829 481.349 315 477 C 310.959 477.693 307.114 478.812 303 479 C 302.426 474.433 302.426 470.567 303 466 C 294.055 468.342 287.507 465.241 291 455 C 288.14 455.361 284.883 456.337 282.015 455.667 C 273.824 453.753 276.51 444.633 278 439 C 276.73 439.343 275.29 439.892 273.956 439.974 C 264.734 440.539 266.995 431.645 263.012 426.699 C 261.327 424.607 258.253 423.99 256.174 422.351 C 252.22 419.235 250.144 414.761 249 410 C 244.508 417.499 249.304 427.02 250 435 C 246.04 424.655 242.152 411.13 244.379 400 C 245.342 395.185 247.915 390.539 250.069 386.17 C 252.168 381.913 255.909 376.71 255.909 376.71 C 255.909 376.71 259.742 372.327 261 368.588 C 262.736 363.426 267.422 359.573 267.471 353.999 C 267.503 350.338 265.176 346.846 261.981 345.179 C 258.138 343.174 253.171 344.217 249 343.561 C 242.372 342.518 236.382 339.821 230 338 C 232.57 347.074 244.154 344.487 247.066 352.133 C 248.712 356.454 245.696 362.413 243.441 366 C 237.691 375.146 231.208 383.946 227 394 L 222 377 C 219.303 383.428 221.821 391.273 221.985 398 C 222.354 413.037 222.356 428.006 223 443 C 220.236 438.246 217 428 217 428 L 216 425 L 215 421 C 211.303 425.958 215.253 434.526 216.863 440 C 219.49 448.931 224.802 456.637 228.738 465 C 232.328 472.629 235.269 482.726 237 491 C 229.354 476.658 224.009 461.38 216.514 447 C 211.429 437.245 203.017 426.001 201.304 415 C 199.812 405.416 203.421 395.327 205 386 C 206.529 388.888 207.373 392.03 210 394 C 209.127 388.926 206.595 384.291 207.133 379 C 207.992 370.538 212.037 363.788 211 355 C 209.238 358.917 208.374 363.712 208 368 C 195.827 356.54 204.555 335.116 203.931 321 C 203.609 313.705 199.573 307.563 200 300 L 198 300 Z"/><path style="fill: rgb(9, 6, 11); stroke: none;" d="M237 303C238.987 309.882 243.193 315.823 249 320C246.095 314.16 241.84 309.376 240 303L237 303M241 303C245.864 314.683 253.172 322.315 262 331.036C268.056 337.019 273.599 342.575 282 345C277.502 335.299 267.044 329.149 260.34 321.004C256.439 316.265 253.99 308.47 249.443 304.603C247.132 302.639 243.825 303.01 241 303z"/><path style="fill: rgb(9, 6, 11); stroke: none;" d="M294 309C296.873 319.546 308.33 325.937 315 334C317.868 321.444 303.909 312.75 294 309z"/><path style="fill: rgb(9, 6, 11); stroke: none;" d="M366 319C362.157 328.963 361.47 334.524 367 344C367.695 340.704 366.205 337.397 366.04 334C365.805 329.158 367.111 323.623 366 319z"/><path style="fill: rgb(9, 6, 11); stroke: none;" d="M361 321L359 331C361.259 327.964 362.409 324.619 361 321z"/><path style="fill: rgb(9, 6, 11); stroke: none;" d="M 199 353 C 195.257 367.469 193.497 382.147 200 396 C 201.592 391.359 205.231 364.104 199 353 Z"/><path style="fill: rgb(9, 6, 11); stroke: none;" d="M332 365C331.936 372.671 328.559 378.705 327 386C332.676 381.501 334.836 371.759 332 365z"/><path style="fill: rgb(9, 6, 11); stroke: none;" d="M351 374C349.737 379.306 348.831 385.127 355 387C352.915 382.656 352.781 378.242 351 374z"/><path style="fill: rgb(9, 6, 11); stroke: none;" d="M370 375C368.702 380.454 367.575 387.049 374 389C370.031 383.862 371.693 380.504 370 375z"/><path style="fill: rgb(9, 6, 11); stroke: none;" d="M412 376C412.048 381.838 412.946 387.525 415 393C416.034 388.474 414.397 380.001 412 376z"/><path style="fill: rgb(9, 6, 11); stroke: none;" d="M343 377C342.266 381.05 340.527 383.798 338 387C339.478 387.986 339.203 388 341 388C342.567 384.459 344.341 380.781 343 377M421 377C421.255 382.931 421.252 389.984 427 393C424.734 387.841 423.596 381.875 421 377z"/><path style="fill: rgb(9, 6, 11); stroke: none;" d="M388 380C386.537 385.655 384.241 392.381 392 393C387.566 388.515 390.007 385.142 388 380M403 380C403 385.581 402.41 390.177 407 394C405.49 389.46 404.817 384.29 403 380z"/><path style="fill: rgb(245, 194, 42); stroke: none;" d="M309 384C303.947 391.188 303.466 398.515 311 404C311.289 397.28 314.097 389.44 309 384z"/><path style="fill: rgb(245, 194, 42); stroke: none;" d="M318 389C315.044 396.621 310.667 405.445 321 409C320.723 401.83 322.642 396.054 320 389L318 389z"/><path style="fill: rgb(245, 194, 42); stroke: none;" d="M330 392C325.667 399.425 319.616 411.99 333 413C333.32 405.554 334.708 399.231 332 392L330 392z"/><path style="fill: rgb(245, 194, 42); stroke: none;" d="M359 392C355.53 397.675 352.408 403.644 350.36 410C349.583 412.411 348.645 415.352 350.042 417.725C352.486 421.877 359.706 422.649 364 423C364 412.702 364.343 401.874 361 392L359 392z"/><path style="fill: rgb(245, 194, 42); stroke: none;" d="M 343 394.068 C 339.664 399.73 330.771 412.806 341.019 416.347 C 342.644 416.909 344.309 416.912 346 417 C 346.366 408.466 348.006 402.485 345.641 394.068 L 343 394.068 Z"/><path style="fill: rgb(245, 194, 42); stroke: none;" d="M382 427C382 417.122 383.46 406.111 379 397C372.506 400.194 369.968 408.282 368.428 415C367.825 417.633 366.717 421.156 368.643 423.49C371.573 427.042 377.852 426.965 382 427M179 398L180 399L179 398z"/><path style="fill: rgb(245, 194, 42); stroke: none;" d="M393.271 401.047C388.174 403.978 384.143 418.444 385.357 423.956C386.469 429.005 394.602 430.621 398.581 427.972C404.19 424.238 402.33 411.417 400.811 406.005C399.897 402.749 397.101 398.845 393.271 401.047M402 430C404.46 429.978 407.427 430.26 409.581 428.821C417.305 423.661 413.589 406.408 410 400C401.689 404.474 403.623 421.631 402 430M418 400C415.261 408.641 415.075 418.939 415 428C423.795 423.662 424.784 406.568 418 400z"/><path style="fill: rgb(245, 194, 42); stroke: none;" d="M427 400C423.832 407.364 423.99 415.164 423 423C430.066 417.451 430.98 408.316 429 400L427 400M180 401L181 402L180 401z"/><path style="fill: rgb(245, 194, 42); stroke: none;" d="M 275 424 C 277.618 425.309 280.217 428.072 283 429 L 284 427 C 284 427 283.788 425.124 282.669 422.996 C 281.665 421.087 280.451 418.916 278.671 417.619 C 270.445 411.622 265.247 429.162 269.028 434.562 C 271.166 437.617 278.424 436.814 279.083 432.775 C 279.545 429.945 276.317 426.334 275 424 Z"/><path style="fill: rgb(245, 194, 42); stroke: none;" d="M353 442C356.358 438.344 356.331 435.621 355 431C358.232 433.319 360.126 434.024 364 433C361.813 429.97 353.23 421.744 350.697 429.148C349.482 432.7 352.089 438.486 353 442z"/><path style="fill: rgb(245, 194, 42); stroke: none;" d="M 289 440 C 291.618 441.848 292.621 443.023 295 442 C 297.568 438.399 290.24 431.427 286.101 432.801 C 281.183 434.433 275.985 448.212 280.742 451.968 C 283.734 454.331 291.488 451.764 292.083 447.892 C 292.476 445.335 289.978 442.257 289 440"/><path style="fill: rgb(245, 194, 42); stroke: none;" d="M359 453C363.285 450.19 360.889 445.307 360 441C363.767 445.952 365.983 447.234 372 445C370.115 440.475 362.822 429.147 358.603 439.133C356.88 443.212 358.817 448.743 359 453M369 435L370 436L369 435z"/><path style="fill: rgb(245, 194, 42); stroke: none;" d="M 302 453 C 304.37 454.456 306.296 455.383 309 456 C 308.665 451.591 303.808 443.361 298.225 446.737 C 294.452 449.018 292.565 456.788 293.163 460.891 C 293.93 466.152 300.858 465.068 303.339 461.606 C 305.261 458.923 303.013 455.615 302 453"/><path style="fill: rgb(245, 194, 42); stroke: none;" d="M368 454C368.89 455.745 369.453 457.125 370 459C374.36 457.172 376.809 448.564 369.939 448.752C364.928 448.888 362.406 458.957 365.175 462.377C368.3 466.237 369.311 460.182 368.841 458.04C368.54 456.667 368.235 455.391 368 454z"/><path style="fill: rgb(245, 194, 42); stroke: none;" d="M305 476C312.619 475.426 318.159 468.709 321 462C318.788 460.545 315.88 458.042 313.043 458.252C306.372 458.748 305.044 471.09 305 476z"/><path style="fill: rgb(245, 194, 42); stroke: none;" d="M373 459C371.851 462.054 370.44 464.75 370 468C372.328 466.817 374.511 465.777 377 465C376.737 461.59 376.321 460.099 373 459z"/><path style="fill: rgb(245, 194, 42); stroke: none;" d="M316 484C321.973 483.86 334.747 479.131 333.168 471.019C332.403 467.088 326.718 464.367 323.34 466.694C320.439 468.692 319.392 472.912 318.144 476C317.047 478.71 316.297 481.096 316 484z"/><path style="fill: rgb(245, 194, 42); stroke: none;" d="M371 471L373 475C375.338 472.853 376.201 471.076 377 468C374.47 468.648 373.115 469.427 371 471z"/><path style="fill: rgb(245, 194, 42); stroke: none;" d="M328 490C334.201 489.854 339.455 487.574 343.655 482.826C345.404 480.85 347.256 477.927 345.342 475.434C343.46 472.982 339.716 472.807 337.379 474.607C333.241 477.795 329.181 485.019 328 490z"/><path style="fill: rgb(245, 194, 42); stroke: none;" d="M361 474C360.04 480.151 356.405 484.015 353 489C360.582 487.627 363.684 481.372 370 478L370 474L361 474z"/><path style="fill: rgb(245, 194, 42); stroke: none;" d="M340 491C348.303 490.551 356.326 484.296 358 476C349.742 476.098 343.922 484.141 340 491z"/><path style="fill: rgb(9, 6, 11); stroke: none;" d="M288 486C291.191 483.455 294.101 480.622 296 477C291.017 477.837 288.949 481.236 288 486z"/><path style="fill: rgb(9, 6, 11); stroke: none;" d="M297 507C299.262 502.968 299.571 498.141 301.919 494.171C303.973 490.698 307.667 488.808 309 485C299.612 486.901 294.956 498.316 297 507z"/><path style="fill: rgb(9, 6, 11); stroke: none;" d="M310 510C312.211 506.908 312.947 503.381 314.669 500.04C316.352 496.774 319.012 494.586 320 491C312.248 493.242 310.15 502.787 310 510z"/><path style="fill: rgb(9, 6, 11); stroke: none;" d="M328 511C331.937 506.868 333.291 501.763 338 498C330.276 492.391 328.241 505.732 328 511z"/></svg>